<?xml version="1.0" encoding="UTF-8"?>
<svg xmlns="http://www.w3.org/2000/svg" width="1006" height="906" viewBox="0 0 1006 906" fill="none">
  <path d="M 447.000 852.500 L 441.000 851.500 L 363.000 775.500 L 256.000 680.500 L 96.000 547.500 L 4.000 475.500 L 0.500 470.000 L 0.500 213.000 L 6.500 180.000 L 12.500 160.000 L 24.500 132.000 L 37.500 111.000 L 54.500 89.000 L 81.000 62.500 L 101.000 46.500 L 134.000 25.500 L 163.000 11.500 L 181.000 5.500 L 202.000 0.500 L 252.000 0.500 L 279.000 6.500 L 307.000 18.500 L 375.000 59.500 L 490.000 142.500 L 499.500 154.000 L 507.500 172.000 L 510.500 190.000 L 507.500 217.000 L 497.500 241.000 L 487.500 256.000 L 463.000 280.500 L 439.000 299.500 L 344.500 368.000 L 345.000 369.500 L 481.000 370.500 L 484.500 381.000 L 483.500 465.000 L 480.000 470.500 L 476.000 471.500 L 235.000 471.500 L 221.000 463.500 L 140.500 402.000 L 141.500 395.000 L 149.000 388.500 L 185.000 363.500 L 369.500 222.000 L 372.500 215.000 L 372.500 204.000 L 369.500 196.000 L 357.000 184.500 L 270.000 126.500 L 239.000 114.500 L 213.000 114.500 L 199.000 119.500 L 178.000 131.500 L 145.500 162.000 L 126.500 190.000 L 120.500 205.000 L 119.500 221.000 L 116.500 229.000 L 117.500 419.000 L 290.000 556.500 L 357.500 614.000 L 366.500 632.000 L 366.500 636.000 L 377.500 660.000 L 395.500 712.000 L 447.500 842.000 L 448.500 851.000 L 447.000 852.500 Z M 942.000 471.500 L 677.000 471.500 L 670.500 469.000 L 669.500 38.000 L 683.000 25.500 L 705.000 12.500 L 724.000 5.500 L 746.000 0.500 L 798.000 0.500 L 826.000 6.500 L 842.000 12.500 L 878.000 30.500 L 921.000 61.500 L 952.500 94.000 L 975.500 125.000 L 986.500 147.000 L 998.500 181.000 L 999.500 192.000 L 997.000 195.500 L 889.000 195.500 L 881.500 188.000 L 869.500 166.000 L 856.000 152.500 L 829.000 132.500 L 805.000 119.500 L 785.000 116.500 L 782.500 120.000 L 782.500 208.000 L 783.500 222.000 L 786.000 223.500 L 1001.000 223.500 L 1005.500 229.000 L 1004.500 299.000 L 1001.500 316.000 L 996.000 321.500 L 783.500 322.000 L 782.500 367.000 L 784.000 369.500 L 986.000 370.500 L 988.500 373.000 L 987.500 384.000 L 975.500 415.000 L 950.500 464.000 L 942.000 471.500 Z M 506.000 905.500 L 499.000 904.500 L 481.500 886.000 L 471.500 873.000 L 463.500 857.000 L 444.500 797.000 L 441.500 793.000 L 408.500 695.000 L 405.500 691.000 L 399.500 668.000 L 393.500 656.000 L 341.500 505.000 L 345.000 501.500 L 435.000 501.500 L 440.500 507.000 L 482.500 618.000 L 489.500 642.000 L 491.000 643.500 L 492.500 642.000 L 495.500 597.000 L 498.500 586.000 L 504.500 492.000 L 509.500 452.000 L 510.500 417.000 L 515.500 386.000 L 516.500 350.000 L 521.500 321.000 L 522.500 287.000 L 527.500 255.000 L 528.500 222.000 L 533.500 194.000 L 534.500 162.000 L 537.500 153.000 L 538.500 128.000 L 539.500 125.000 L 555.000 111.500 L 632.000 58.500 L 644.000 52.500 L 647.500 55.000 L 645.500 76.000 L 642.500 84.000 L 639.500 116.000 L 636.500 123.000 L 633.500 155.000 L 630.500 162.000 L 629.500 182.000 L 624.500 202.000 L 623.500 224.000 L 621.500 227.000 L 617.500 265.000 L 612.500 288.000 L 612.500 299.000 L 607.500 322.000 L 606.500 344.000 L 600.500 371.000 L 600.500 386.000 L 594.500 412.000 L 594.500 428.000 L 588.500 453.000 L 588.500 469.000 L 582.500 496.000 L 570.500 596.000 L 565.500 621.000 L 552.500 723.000 L 549.500 733.000 L 546.500 765.000 L 543.500 774.000 L 539.500 812.000 L 536.500 819.000 L 536.500 832.000 L 530.500 874.000 L 524.500 889.000 L 506.000 905.500 Z M 545.000 869.500 L 542.000 869.500 L 540.500 867.000 L 540.500 858.000 L 546.500 835.000 L 546.500 825.000 L 550.500 812.000 L 557.500 762.000 L 560.500 754.000 L 563.500 729.000 L 566.500 721.000 L 579.500 649.000 L 589.500 635.000 L 608.000 616.500 L 730.000 501.500 L 918.000 501.500 L 921.500 504.000 L 921.500 508.000 L 906.000 523.500 L 545.000 869.500 Z" fill="#EC4899" fill-rule="evenodd" clip-rule="evenodd"/>
</svg>
